<!--?xml version="1.0" encoding="utf-8"?-->
<!-- Generator: Adobe Illustrator 19.1.1, SVG Export Plug-In . SVG Version: 6.00 Build 0)  -->
<svg version="1.1" id="_x31_0" xmlns="http://www.w3.org/2000/svg" xmlns:xlink="http://www.w3.org/1999/xlink" x="0px" y="0px" viewBox="0 0 512 512" style="width: 256px; height: 256px; opacity: 1;" xml:space="preserve">
<style type="text/css">
	.st0{fill:#374149;}
</style>
<g>
	<path class="st0" d="M489.552,221.446c-9.105-4.657-18.835-7.024-28.855-7.024c-1.449,0-2.801,0.242-4.214,0.336
		c-0.711,0.047-1.418,0.102-2.122,0.172c-25.305,2.512-44.797,19.215-55.742,31.465l-25.359,4.906
		c-3.874-6.602-8.43-12.718-13.476-18.39v-99.402c0-60.95-43.59-112.266-103.63-122.004c-0.484-0.082-0.992-0.11-1.48-0.184
		C254.049,4.965,248.763,0,242.24,0h-86.774c-6.519,0-11.805,4.965-12.434,11.32c-0.477,0.074-0.977,0.098-1.457,0.176
		C81.494,21.246,37.881,72.558,37.881,133.508v99.351c-16.066,18.027-26.688,41.137-29.188,66.965l-8.106,83.074
		c-3.202,32.973,7.692,65.946,29.934,90.477C52.81,497.906,84.576,512,117.674,512h162.363c33.098,0,64.863-14.094,87.106-38.625
		c8.359-9.23,15.137-19.629,20.125-30.813c25.363-9.726,49.855-33.55,73.098-71.266c21.66-35.094,39.996-79.789,46.734-113.758
		l4.863-24.699L489.552,221.446z M423.381,367.035c-0.637,0.91-1.294,1.766-1.934,2.656c-7.664,10.594-15.699,19.946-23.867,27.184
		c0.156-4.645-0.004-9.29-0.458-13.977l-8.109-83.074c-0.582-5.863-1.535-11.558-2.91-17.133l30.851-5.984
		c0,0,19.711-29.024,43.742-29.024c4.492,0,9.106,1,13.762,3.367c-6.148,31.11-24.976,77.41-48.918,112.79
		C424.818,364.898,424.111,365.996,423.381,367.035z M155.466,33.386h86.774c4.347,0,8.172-2.218,10.426-5.57
		c0.266,0.042,0.539,0.054,0.801,0.098c51.969,8.434,89.687,52.839,89.687,105.594v52.254l-0.098,31.606
		c-8.523-6.45-17.949-11.766-28.05-15.672V140.91l-23.91-7.027l-36.797-10.77c1.039-4.363,1.621-8.898,1.621-13.598
		c0-31.473-25.609-57.043-57.086-57.043c-31.434,0-57.047,25.57-57.047,57.043c0,4.699,0.582,9.234,1.622,13.598l-36.797,10.77
		l-23.95,7.027v60.785c-8.554,3.336-16.586,7.699-24.035,12.859c-1.375,0.922-2.766,1.825-4.113,2.797v-83.843
		c0-52.75,37.734-97.157,89.754-105.598c0.25-0.043,0.519-0.055,0.774-0.094C147.294,31.168,151.118,33.386,155.466,33.386z
		 M281.728,194.004c-3.238-0.289-6.477-0.414-9.797-0.414H125.779c-3.23,0-6.422,0.129-9.578,0.406
		c-0.094,0.004-0.183,0-0.278,0.008v-28.187l45.489-13.309l20.874-6.153h0.039l16.508-4.82l16.508,4.863h0.039l20.914,6.11
		l45.446,13.309v25.894L281.728,194.004z M175.466,113.707c-0.289-1.367-0.418-2.738-0.418-4.191
		c0-13.137,10.648-23.782,23.785-23.782c13.141,0,23.824,10.645,23.824,23.782c0,1.43-0.129,2.777-0.406,4.125
		c-0.007,0.027-0.011,0.05-0.019,0.074l-14.043-4.114l-9.355-2.746l-9.313,2.746l-13.14,3.848L175.466,113.707z M41.954,386.934
		l8.11-83.078c2.246-23.117,14.68-42.992,32.598-55.301c5.114-3.535,10.73-6.441,16.633-8.605
		c8.274-3.118,17.215-4.782,26.485-4.782h146.152c9.27,0,18.211,1.664,26.442,4.782c5.906,2.164,11.519,5.07,16.633,8.605
		c4.781,3.286,9.187,7.114,13.137,11.438c4.078,4.489,7.652,9.481,10.562,14.883c2.703,4.91,4.863,10.187,6.446,15.714
		c1.202,4.246,2.038,8.695,2.492,13.266l8.109,83.078c0.875,9.226,0.126,18.211-2.078,26.61c-1.454,5.484-3.492,10.726-6.031,15.675
		c-2.66,5.153-5.902,9.977-9.645,14.34c-13.886,16.387-34.594,26.863-57.961,26.863H117.674
		C72.767,470.422,37.591,431.668,41.954,386.934z" style="fill: rgb(255, 255, 255);"></path>
	<path class="st0" d="M112.767,445.473h32.762c9.828,0,15.133-9.91,11.989-17.77c-0.063-0.156-0.141-0.309-0.211-0.465
		c-0.492-1.09-1.153-2.102-1.992-3.062c-0.133-0.149-0.27-0.29-0.41-0.434c-0.481-0.504-0.844-1.062-1.434-1.512
		c-34.926-26.61-59.375-61.41-69.977-97.832c-0.914-3.164-5.445-2.828-5.777,0.414c-2.829,26.277-7.57,73.675-7.57,73.675
		c-1.164,12.184,2.703,23.867,10.938,32.93C89.275,440.484,100.541,445.473,112.767,445.473z" style="fill: rgb(255, 255, 255);"></path>
</g>
</svg>
